<svg version="1.0" xmlns="http://www.w3.org/2000/svg" width="100" height="100" viewBox="0 0 500.000000 500.000000" preserveAspectRatio="xMidYMid meet">

<g transform="translate(0.000000,500.000000) scale(0.100000,-0.100000)" fill="#000000" stroke="none">
<path d="M2569 3579 c-227 -16 -426 -58 -554 -118 -99 -46 -175 -115 -254
-231 -69 -101 -93 -111 -132 -56 -50 71 -142 123 -201 114 -22 -3 -34 -29 -67
-148 -26 -92 -18 -107 58 -116 34 -4 61 -9 61 -13 0 -3 -23 -19 -51 -36 -99
-58 -143 -134 -156 -268 l-6 -68 98 3 98 3 12 43 c22 71 59 110 149 153 44 21
93 41 107 44 24 6 27 3 38 -42 17 -65 55 -119 110 -151 l46 -27 333 -3 c323
-3 332 -2 332 16 0 33 -39 211 -51 235 -24 47 -84 98 -131 112 -30 9 -126 17
-258 21 -116 4 -213 11 -216 16 -7 11 31 72 75 121 59 65 150 102 336 136 345
64 760 49 934 -32 60 -28 196 -166 216 -219 5 -13 -29 -16 -220 -21 -127 -4
-244 -12 -266 -19 -22 -6 -60 -29 -83 -49 -39 -35 -46 -48 -74 -146 -17 -59
-33 -123 -36 -141 l-6 -33 348 3 c339 3 348 4 390 26 51 27 94 84 112 147 10
36 17 45 34 45 41 0 179 -75 219 -118 20 -23 37 -44 37 -46 0 -2 4 -26 9 -53
6 -30 6 -75 1 -112 -12 -86 -51 -212 -67 -218 -8 -3 -32 15 -56 41 l-43 46
-367 0 -367 0 7 -27 c15 -52 5 -179 -21 -288 -30 -123 -94 -266 -160 -359 -65
-91 -87 -108 -146 -114 -47 -4 -52 -3 -85 32 l-34 36 -36 -25 c-107 -72 -185
-22 -185 120 0 113 32 206 133 395 85 158 90 174 67 202 l-18 23 -607 3 c-594
3 -606 2 -596 -17 10 -19 -1 -38 -136 -225 -25 -35 -28 -48 -28 -115 0 -122 5
-126 78 -53 34 34 70 62 80 62 21 0 21 -5 1 -27 -33 -37 -148 -221 -190 -305
-24 -47 -48 -89 -54 -93 -15 -9 -64 17 -68 37 -2 9 15 57 38 106 l41 89 -20
61 c-41 120 -24 207 66 343 24 36 43 72 43 81 0 16 -126 68 -165 68 -60 0
-192 -302 -236 -540 -18 -96 -16 -237 4 -282 20 -47 91 -118 142 -142 109 -52
50 -50 1345 -53 1070 -3 1209 -2 1246 12 28 10 63 40 112 96 63 70 172 218
172 233 0 3 15 29 34 58 103 164 230 443 277 613 63 230 -14 481 -171 554
l-55 25 40 12 c22 7 48 13 57 13 27 1 48 30 48 66 0 19 -4 36 -9 39 -5 3 -14
27 -20 53 -27 111 -29 113 -120 88 -46 -12 -63 -24 -121 -86 l-67 -72 -43 59
c-24 33 -54 75 -69 94 -77 105 -172 184 -281 234 -146 66 -472 98 -781 75z
m-529 -669 c118 -8 141 -13 195 -39 34 -17 70 -40 80 -51 l18 -20 -189 0
c-212 0 -242 7 -277 67 -33 57 -33 57 173 43z m1540 -4 c0 -22 -44 -80 -70
-93 -18 -9 -84 -13 -219 -13 l-194 0 24 26 c56 62 167 90 357 93 80 1 102 -2
102 -13z m215 -710 c19 -8 35 -21 35 -28 0 -24 -187 -349 -258 -447 -88 -124
-161 -176 -263 -188 -41 -5 -48 -3 -67 22 -12 15 -22 31 -22 35 0 4 19 10 42
14 58 9 118 38 151 71 25 26 27 34 27 109 -1 73 -2 79 -15 61 -50 -68 -122
-148 -151 -166 -41 -25 -92 -22 -108 6 -6 11 -12 22 -13 24 -1 2 -18 -8 -37
-23 -52 -39 -84 -49 -118 -35 -36 15 -43 45 -28 111 19 81 74 177 145 256 111
121 174 142 240 80 41 -38 59 -98 30 -98 -9 0 -26 11 -37 25 -11 14 -28 25
-39 25 -59 0 -269 -274 -235 -307 9 -10 70 52 126 128 27 36 61 71 75 77 35
16 74 15 81 -2 9 -23 -31 -101 -78 -152 -38 -41 -40 -46 -18 -39 106 32 177
134 190 272 4 46 10 86 14 90 3 3 24 -2 46 -12 46 -21 48 -33 29 -155 -17
-110 -10 -114 49 -22 28 46 52 85 52 88 0 14 103 194 111 194 5 0 25 -7 44
-14z m-2119 -61 c15 -24 15 -59 -2 -117 -11 -36 28 -18 81 37 29 30 57 55 63
55 7 0 19 -11 28 -25 15 -23 14 -28 -44 -137 -33 -62 -71 -132 -84 -155 -45
-82 7 -59 85 39 24 29 72 99 106 155 l63 103 36 -16 c54 -22 55 -26 24 -70
-23 -33 -87 -145 -138 -243 -28 -54 12 -69 50 -18 24 32 166 289 166 301 0 3
-7 6 -15 6 -24 0 -18 20 9 30 13 5 27 18 31 29 9 29 31 26 67 -9 27 -28 31
-29 51 -15 30 21 53 19 71 -7 22 -31 20 -42 -15 -83 -36 -41 -41 -42 -54 -13
-24 52 -52 27 -124 -111 -65 -122 -109 -189 -141 -213 -28 -20 -60 -16 -60 8
0 18 -14 18 -30 -1 -25 -30 -87 -8 -102 36 -3 9 -17 4 -49 -19 -24 -17 -56
-34 -72 -38 -38 -9 -74 17 -82 59 -8 41 24 131 65 182 17 21 30 39 30 41 0 2
-10 4 -23 4 -18 0 -28 -13 -54 -68 -84 -181 -218 -269 -294 -193 -39 40 -38
85 6 185 39 91 70 138 140 214 64 70 100 92 152 92 34 0 46 -5 59 -25z"></path>
<path d="M1526 2003 c-36 -43 -82 -110 -101 -149 -70 -140 -32 -182 68 -74 57
62 90 129 108 224 19 100 11 100 -75 -1z"></path>
<path d="M2723 2402 c10 -10 17 -23 17 -27 0 -5 -29 -61 -64 -125 -129 -232
-210 -478 -166 -505 18 -11 60 24 77 63 44 104 59 135 111 224 31 54 63 100
71 103 8 3 24 -2 37 -10 33 -21 31 -56 -7 -135 -54 -114 -90 -212 -87 -238 4
-35 30 -49 61 -35 33 15 137 174 176 268 43 101 58 207 42 280 -23 104 -93
154 -215 155 -66 0 -68 -1 -53 -18z"></path>
</g>
</svg>